<?xml version="1.0" encoding="UTF-8"?>
<svg xmlns="http://www.w3.org/2000/svg" viewBox="0 0 36.52 36.52">
  <defs>
    <linearGradient id="iconGradient" x1="1.58" y1=".08" x2="23.58" y2="24.06" gradientUnits="userSpaceOnUse">
      <stop offset=".16" stop-color="#ff7a45"/>
      <stop offset=".88" stop-color="#f43f9b"/>
      <stop offset="1" stop-color="#e53db4"/>
    </linearGradient>
  </defs>
  <rect width="36.52" height="36.52" rx="8" fill="#171715"/>
  <rect x="19.92" y="19.92" width="16.6" height="16.6" rx="2.44" fill="#ededed"/>
  <path fill="url(#iconGradient)" d="M14.16,16.6H2.44c-1.35,0-2.44-1.09-2.44-2.44V2.44C0,1.09,1.09,0,2.44,0h11.72C15.51,0,16.6,1.09,16.6,2.44v11.72c0,1.35-1.09,2.44-2.44,2.44ZM36.52,14.16V2.44C36.52,1.09,35.43,0,34.08,0h-11.72C21.02,0,19.92,1.09,19.92,2.44v11.72c0,1.35,1.09,2.44,2.44,2.44h11.72c1.35,0,2.44-1.09,2.44-2.44ZM16.6,34.08v-11.72c0-1.35-1.09-2.44-2.44-2.44H2.44c-1.35,0-2.44,1.09-2.44,2.44v11.72c0,1.35,1.09,2.44,2.44,2.44h11.72c1.35,0,2.44-1.09,2.44-2.44Z"/>
</svg>
