<?xml version="1.0" encoding="UTF-8"?>
<svg xmlns="http://www.w3.org/2000/svg" viewBox="0 0 45.03 45.03">
  <defs>
    <linearGradient id="iconGradient" x1="5.83" y1="4.33" x2="27.83" y2="28.31" gradientUnits="userSpaceOnUse">
      <stop offset=".16" stop-color="#ff7a45"/>
      <stop offset=".88" stop-color="#f43f9b"/>
      <stop offset="1" stop-color="#e53db4"/>
    </linearGradient>
  </defs>
  <rect width="45.03" height="45.03" rx="10" fill="#171715"/>
  <rect x="24.18" y="24.18" width="16.6" height="16.6" rx="2.44" fill="#ededed"/>
  <path fill="url(#iconGradient)" d="M18.41,20.85H6.69c-1.35,0-2.44-1.09-2.44-2.44V6.69c0-1.35,1.09-2.44,2.44-2.44h11.72c1.35,0,2.44,1.09,2.44,2.44v11.72c0,1.35-1.09,2.44-2.44,2.44ZM40.77,18.41V6.69c0-1.35-1.09-2.44-2.44-2.44h-11.72c-1.35,0-2.44,1.09-2.44,2.44v11.72c0,1.35,1.09,2.44,2.44,2.44h11.72c1.35,0,2.44-1.09,2.44-2.44ZM20.85,38.33v-11.72c0-1.35-1.09-2.44-2.44-2.44H6.69c-1.35,0-2.44,1.09-2.44,2.44v11.72c0,1.35,1.09,2.44,2.44,2.44h11.72c1.35,0,2.44-1.09,2.44-2.44Z"/>
</svg>
