<?xml version="1.0" encoding="UTF-8"?>
<svg xmlns="http://www.w3.org/2000/svg" viewBox="0 0 45.03 45.03">
  <defs>
    <linearGradient id="iconGradient" x1="6.98" y1="5.58" x2="27.47" y2="27.91" gradientUnits="userSpaceOnUse">
      <stop offset=".16" stop-color="#ff7a45"/>
      <stop offset=".88" stop-color="#f43f9b"/>
      <stop offset="1" stop-color="#e53db4"/>
    </linearGradient>
  </defs>
  <rect width="45.03" height="45.03" fill="#fff"/>
  <rect x="24.18" y="24.18" width="16.6" height="16.6" rx="2.44" fill="#ededed"/>
  <path fill="url(#iconGradient)" d="M18.69,20.96H7.78c-1.26,0-2.27-1.02-2.27-2.27V7.78c0-1.26,1.02-2.27,2.27-2.27h10.91c1.26,0,2.27,1.02,2.27,2.27v10.91c0,1.26-1.02,2.27-2.27,2.27ZM39.52,18.69V7.78c0-1.26-1.02-2.27-2.27-2.27h-10.91c-1.26,0-2.27,1.02-2.27,2.27v10.91c0,1.26,1.02,2.27,2.27,2.27h10.91c1.26,0,2.27-1.02,2.27-2.27ZM20.96,37.25v-10.91c0-1.26-1.02-2.27-2.27-2.27H7.78c-1.26,0-2.27,1.02-2.27,2.27v10.91c0,1.26,1.02,2.27,2.27,2.27h10.91c1.26,0,2.27-1.02,2.27-2.27Z"/>
</svg>
