<?xml version="1.0" encoding="UTF-8"?>
<svg id="Laag_1" data-name="Laag 1" xmlns="http://www.w3.org/2000/svg" xmlns:xlink="http://www.w3.org/1999/xlink" viewBox="0 0 169.77 36.52">
  <defs>
    <style>
      .cls-1 {
        fill: url(#Nieuwe_verloopstaal_1);
      }

      .cls-2 {
        fill: url(#Naamloos_verloop_116);
      }

      .cls-3 {
        fill: #ededed;
      }
    </style>
    <linearGradient id="Nieuwe_verloopstaal_1" data-name="Nieuwe verloopstaal 1" x1="48.98" y1="18.26" x2="169.77" y2="18.26" gradientUnits="userSpaceOnUse">
      <stop offset="0" stop-color="#0a84ff"/>
      <stop offset="1" stop-color="#5e5ce6"/>
    </linearGradient>
    <linearGradient id="Naamloos_verloop_116" data-name="Naamloos verloop 116" x1="1.58" y1=".08" x2="23.58" y2="24.06" gradientUnits="userSpaceOnUse">
      <stop offset=".16" stop-color="#ff7a45"/>
      <stop offset=".88" stop-color="#f43f9b"/>
      <stop offset="1" stop-color="#e53db4"/>
    </linearGradient>
  </defs>
  <rect class="cls-3" x="19.92" y="19.92" width="16.6" height="16.6" rx="2.44" ry="2.44"/>
  <path class="cls-1" d="M71.73,20.76c.53.95.8,2.15.8,3.61s-.31,2.84-.94,3.99-1.48,2.09-2.55,2.85c-1.07.76-2.29,1.33-3.66,1.71-1.37.38-2.81.57-4.31.57-2.14,0-4.06-.37-5.77-1.12-1.71-.74-3.12-1.81-4.22-3.2-1.1-1.39-1.8-3.03-2.1-4.94l5.07-.77c.43,1.73,1.32,3.07,2.67,4.02,1.35.95,2.9,1.42,4.66,1.42,1.04,0,2.02-.16,2.94-.49s1.67-.8,2.24-1.42c.57-.62.86-1.39.86-2.29,0-.41-.07-.78-.2-1.13-.14-.35-.33-.65-.6-.92-.26-.27-.6-.52-1.01-.74-.41-.22-.89-.42-1.43-.58l-7.55-2.23c-.65-.19-1.35-.44-2.1-.76-.75-.32-1.46-.76-2.13-1.32s-1.22-1.28-1.64-2.15c-.43-.87-.64-1.95-.64-3.24,0-1.88.48-3.46,1.43-4.74.95-1.28,2.24-2.24,3.85-2.87s3.41-.95,5.39-.93c2,.01,3.79.35,5.36,1.02,1.57.67,2.88,1.64,3.94,2.91,1.05,1.27,1.8,2.81,2.23,4.61l-5.25.91c-.22-1.03-.63-1.9-1.25-2.63-.62-.72-1.37-1.27-2.25-1.65-.89-.38-1.83-.58-2.83-.61-.97-.01-1.88.13-2.71.44-.83.3-1.5.74-2.01,1.31-.51.57-.76,1.23-.76,1.99,0,.72.22,1.3.65,1.75.43.45.97.81,1.61,1.08.64.26,1.29.48,1.96.66l5.23,1.46c.72.19,1.52.45,2.41.77.89.32,1.75.78,2.58,1.36s1.5,1.35,2.04,2.29ZM77.34,32.87h4.89V3.04h-4.89v29.82ZM88.72,7.63h4.89V3.15h-4.89v4.48ZM88.72,32.87h4.89V10.96h-4.89v21.91ZM114.12,3.65h4.93v29.22h-4.32v-1.62c-.28.25-.56.49-.87.71-1.45,1.01-3.24,1.52-5.38,1.52-2.02,0-3.77-.51-5.27-1.52-1.5-1.01-2.67-2.39-3.49-4.14-.83-1.75-1.24-3.71-1.24-5.9s.42-4.2,1.25-5.93c.83-1.74,2.01-3.11,3.54-4.12s3.33-1.51,5.4-1.51,3.83.5,5.24,1.51c.08.05.14.12.21.18V3.65ZM114.73,21.91c0-1.43-.19-2.69-.56-3.76-.37-1.08-.95-1.91-1.73-2.52-.78-.6-1.8-.9-3.04-.9-1.31,0-2.39.32-3.25.96-.85.64-1.48,1.51-1.89,2.6-.41,1.09-.61,2.3-.61,3.62s.2,2.55.6,3.64,1.01,1.95,1.84,2.59c.82.64,1.87.95,3.14.95s2.37-.3,3.18-.9c.8-.6,1.39-1.44,1.77-2.53.37-1.08.56-2.33.56-3.75ZM143.74,16.43c.77,1.93,1.06,4.21.87,6.84h-15.85c.17,1.57.62,2.84,1.38,3.79.97,1.22,2.39,1.83,4.26,1.83,1.2,0,2.24-.27,3.11-.8.87-.53,1.55-1.31,2.02-2.32l4.83,1.46c-.84,1.98-2.13,3.51-3.89,4.6-1.75,1.1-3.68,1.64-5.79,1.64-2.22,0-4.17-.48-5.84-1.44s-2.99-2.29-3.93-4c-.94-1.7-1.41-3.67-1.41-5.88,0-2.39.46-4.47,1.38-6.24.92-1.77,2.2-3.13,3.83-4.11,1.64-.97,3.53-1.46,5.68-1.46,2.27,0,4.2.53,5.79,1.59,1.59,1.06,2.77,2.56,3.54,4.49ZM130.15,16.49c-.62.79-1.02,1.84-1.25,3.09h10.74c-.18-1.42-.55-2.53-1.14-3.31-.83-1.1-2.12-1.64-3.9-1.64-2,0-3.49.62-4.46,1.86ZM169.77,21.91c0,2.27-.46,4.28-1.37,6.02-.91,1.74-2.19,3.1-3.82,4.08s-3.55,1.47-5.74,1.47-4.11-.49-5.74-1.48c-1.64-.99-2.9-2.35-3.8-4.09s-1.35-3.74-1.35-6,.46-4.31,1.38-6.05c.92-1.73,2.2-3.08,3.83-4.06,1.64-.97,3.53-1.46,5.68-1.46s4.13.49,5.76,1.48c1.64.99,2.91,2.35,3.81,4.09.9,1.74,1.36,3.74,1.36,6ZM164.6,21.91c0-2.12-.48-3.82-1.44-5.08s-2.4-1.9-4.32-1.9c-1.31,0-2.39.29-3.24.88-.85.59-1.47,1.41-1.88,2.46s-.61,2.26-.61,3.64c0,2.12.48,3.82,1.45,5.08s2.39,1.9,4.27,1.9,3.39-.65,4.34-1.95c.95-1.3,1.42-2.98,1.42-5.03Z"/>
  <path class="cls-2" d="M14.16,16.6H2.44c-1.35,0-2.44-1.09-2.44-2.44V2.44C0,1.09,1.09,0,2.44,0h11.72C15.51,0,16.6,1.09,16.6,2.44v11.72c0,1.35-1.09,2.44-2.44,2.44ZM36.52,14.16V2.44C36.52,1.09,35.43,0,34.08,0h-11.72C21.02,0,19.92,1.09,19.92,2.44v11.72c0,1.35,1.09,2.44,2.44,2.44h11.72c1.35,0,2.44-1.09,2.44-2.44ZM16.6,34.08v-11.72c0-1.35-1.09-2.44-2.44-2.44H2.44c-1.35,0-2.44,1.09-2.44,2.44v11.72c0,1.35,1.09,2.44,2.44,2.44h11.72c1.35,0,2.44-1.09,2.44-2.44Z"/>
</svg>