<svg viewBox="0 0 400 400" xmlns="http://www.w3.org/2000/svg">
  <rect width="400" height="400" fill="#8fd3f4"/>
  <rect y="300" width="400" height="100" fill="#7fc97f"/>
  <circle cx="320" cy="70" r="38" fill="#fff6b0"/>
  <polygon points="170,330 230,330 215,150 185,150" fill="#c97b4a"/>
  <polygon points="178,160 222,160 200,130" fill="#9c5a32"/>
  <g stroke="#fdfdfd" stroke-width="14" stroke-linecap="round">
    <line x1="200" y1="150" x2="120" y2="90"/>
    <line x1="200" y1="150" x2="270" y2="100"/>
    <line x1="200" y1="150" x2="260" y2="200"/>
    <line x1="200" y1="150" x2="140" y2="210"/>
  </g>
  <g fill="#fdfdfd">
    <polygon points="200,150 120,90 100,110 190,165"/>
    <polygon points="200,150 270,100 285,125 205,168"/>
    <polygon points="200,150 260,200 245,225 195,170"/>
    <polygon points="200,150 140,210 120,190 195,150"/>
  </g>
  <circle cx="200" cy="150" r="12" fill="#5a3a26"/>
  <rect x="120" y="320" width="40" height="50" fill="#9c5a32"/>
  <polygon points="110,320 170,320 140,300" fill="#7a4426"/>
</svg>
